<mxfile host="app.diagrams.net" agent="Mozilla/5.0 (Windows NT 10.0; Win64; x64) AppleWebKit/537.36 (KHTML, like Gecko) Chrome/131.0.0.0 Safari/537.36" version="24.8.6">
  <diagram name="Page-1" id="3YIcNdiaiTrW0Ry75_PY">
    <mxGraphModel dx="1050" dy="522" grid="1" gridSize="10" guides="1" tooltips="1" connect="1" arrows="1" fold="1" page="1" pageScale="1" pageWidth="850" pageHeight="1100" math="0" shadow="0">
      <root>
        <mxCell id="0" />
        <mxCell id="1" parent="0" />
        <mxCell id="JdDkVsaehTwl-YgAWCY3-1" value="" style="edgeStyle=orthogonalEdgeStyle;rounded=0;orthogonalLoop=1;jettySize=auto;html=1;entryX=0.5;entryY=1;entryDx=0;entryDy=0;" edge="1" parent="1" source="JdDkVsaehTwl-YgAWCY3-7" target="JdDkVsaehTwl-YgAWCY3-8">
          <mxGeometry relative="1" as="geometry">
            <Array as="points">
              <mxPoint x="390" y="260" />
              <mxPoint x="290" y="260" />
            </Array>
          </mxGeometry>
        </mxCell>
        <mxCell id="JdDkVsaehTwl-YgAWCY3-2" style="edgeStyle=orthogonalEdgeStyle;rounded=0;orthogonalLoop=1;jettySize=auto;html=1;" edge="1" parent="1" source="JdDkVsaehTwl-YgAWCY3-7" target="JdDkVsaehTwl-YgAWCY3-9">
          <mxGeometry relative="1" as="geometry">
            <Array as="points">
              <mxPoint x="390" y="280" />
              <mxPoint x="390" y="280" />
            </Array>
          </mxGeometry>
        </mxCell>
        <mxCell id="JdDkVsaehTwl-YgAWCY3-3" style="edgeStyle=orthogonalEdgeStyle;rounded=0;orthogonalLoop=1;jettySize=auto;html=1;" edge="1" parent="1" source="JdDkVsaehTwl-YgAWCY3-7" target="JdDkVsaehTwl-YgAWCY3-10">
          <mxGeometry relative="1" as="geometry">
            <Array as="points">
              <mxPoint x="390" y="260" />
              <mxPoint x="490" y="260" />
            </Array>
          </mxGeometry>
        </mxCell>
        <mxCell id="JdDkVsaehTwl-YgAWCY3-8" value="ESC" style="whiteSpace=wrap;html=1;" vertex="1" parent="1">
          <mxGeometry x="260" y="140" width="60" height="60" as="geometry" />
        </mxCell>
        <mxCell id="JdDkVsaehTwl-YgAWCY3-9" value="ESC" style="whiteSpace=wrap;html=1;" vertex="1" parent="1">
          <mxGeometry x="360" y="140" width="60" height="60" as="geometry" />
        </mxCell>
        <mxCell id="JdDkVsaehTwl-YgAWCY3-10" value="ESC" style="whiteSpace=wrap;html=1;" vertex="1" parent="1">
          <mxGeometry x="460" y="140" width="60" height="60" as="geometry" />
        </mxCell>
        <mxCell id="JdDkVsaehTwl-YgAWCY3-11" style="edgeStyle=orthogonalEdgeStyle;rounded=0;orthogonalLoop=1;jettySize=auto;html=1;" edge="1" parent="1" source="JdDkVsaehTwl-YgAWCY3-12" target="JdDkVsaehTwl-YgAWCY3-7">
          <mxGeometry relative="1" as="geometry" />
        </mxCell>
        <mxCell id="JdDkVsaehTwl-YgAWCY3-12" value="Jetson Nano" style="whiteSpace=wrap;html=1;" vertex="1" parent="1">
          <mxGeometry x="570" y="290" width="120" height="60" as="geometry" />
        </mxCell>
        <mxCell id="JdDkVsaehTwl-YgAWCY3-14" value="Pixhawk" style="whiteSpace=wrap;html=1;" vertex="1" parent="1">
          <mxGeometry x="90" y="290" width="120" height="60" as="geometry" />
        </mxCell>
        <mxCell id="JdDkVsaehTwl-YgAWCY3-24" style="edgeStyle=orthogonalEdgeStyle;rounded=0;orthogonalLoop=1;jettySize=auto;html=1;" edge="1" parent="1" source="JdDkVsaehTwl-YgAWCY3-25" target="JdDkVsaehTwl-YgAWCY3-12">
          <mxGeometry relative="1" as="geometry" />
        </mxCell>
        <mxCell id="JdDkVsaehTwl-YgAWCY3-25" value="Camera" style="whiteSpace=wrap;html=1;" vertex="1" parent="1">
          <mxGeometry x="570" y="140" width="120" height="60" as="geometry" />
        </mxCell>
        <mxCell id="JdDkVsaehTwl-YgAWCY3-26" value="" style="edgeStyle=orthogonalEdgeStyle;rounded=0;orthogonalLoop=1;jettySize=auto;html=1;" edge="1" parent="1" source="JdDkVsaehTwl-YgAWCY3-14" target="JdDkVsaehTwl-YgAWCY3-7">
          <mxGeometry relative="1" as="geometry">
            <mxPoint x="480" y="320" as="targetPoint" />
            <Array as="points" />
            <mxPoint x="230" y="320" as="sourcePoint" />
          </mxGeometry>
        </mxCell>
        <mxCell id="JdDkVsaehTwl-YgAWCY3-7" value="Raspberry Pi" style="rounded=0;whiteSpace=wrap;html=1;" vertex="1" parent="1">
          <mxGeometry x="330" y="290" width="120" height="60" as="geometry" />
        </mxCell>
      </root>
    </mxGraphModel>
  </diagram>
</mxfile>
